<svg width="33" height="33" viewBox="0 0 33 33" fill="none" xmlns="http://www.w3.org/2000/svg">
<g clip-path="url(#clip0_32_105)" filter="url(#filter0_d_32_105)">
<path d="M28.0772 7.84562C28.021 6.5704 27.8148 5.69371 27.5194 4.93404C27.2146 4.12767 26.7458 3.40572 26.1315 2.80557C25.5314 2.19608 24.8047 1.72247 24.0076 1.42249C23.2436 1.12708 22.3714 0.920863 21.0962 0.864639C19.8115 0.803653 19.4036 0.789551 16.1452 0.789551C12.8867 0.789551 12.4789 0.803653 11.1989 0.859877C9.9237 0.916101 9.04701 1.1225 8.28752 1.41773C7.48097 1.72247 6.75902 2.19131 6.15887 2.80557C5.54938 3.40572 5.07596 4.13243 4.77579 4.92946C4.48038 5.69371 4.27417 6.56564 4.21794 7.84085C4.15695 9.12559 4.14285 9.53345 4.14285 12.7919C4.14285 16.0503 4.15695 16.4582 4.21318 17.7382C4.2694 19.0134 4.4758 19.8901 4.77121 20.6498C5.07596 21.4561 5.54938 22.1781 6.15887 22.7782C6.75902 23.3877 7.48573 23.8613 8.28276 24.1613C9.04701 24.4567 9.91894 24.6629 11.1943 24.7192C12.4741 24.7756 12.8822 24.7895 16.1406 24.7895C19.3991 24.7895 19.8069 24.7756 21.0869 24.7192C22.3621 24.6629 23.2388 24.4567 23.9983 24.1613C25.6112 23.5377 26.8864 22.2625 27.51 20.6498C27.8052 19.8855 28.0116 19.0134 28.0679 17.7382C28.1241 16.4582 28.1382 16.0503 28.1382 12.7919C28.1382 9.53345 28.1334 9.12559 28.0772 7.84562ZM25.916 17.6444C25.8643 18.8165 25.6674 19.4494 25.5033 19.8714C25.1001 20.917 24.2703 21.7468 23.2247 22.15C22.8027 22.3141 22.1652 22.511 20.9977 22.5625C19.7318 22.6189 19.3522 22.6328 16.15 22.6328C12.9477 22.6328 12.5633 22.6189 11.302 22.5625C10.1299 22.511 9.49698 22.3141 9.07503 22.15C8.55472 21.9577 8.08112 21.653 7.69671 21.2545C7.29819 20.8653 6.99345 20.3965 6.80115 19.8762C6.63705 19.4542 6.44018 18.8165 6.38871 17.6492C6.33231 16.3833 6.31839 16.0035 6.31839 12.8012C6.31839 9.59901 6.33231 9.2146 6.38871 7.95349C6.44018 6.78138 6.63705 6.14845 6.80115 5.72649C6.99345 5.206 7.29819 4.73258 7.70147 4.34799C8.09046 3.94947 8.5593 3.64472 9.07979 3.45261C9.50175 3.28851 10.1394 3.09164 11.3068 3.03999C12.5727 2.98377 12.9525 2.96966 16.1545 2.96966C19.3615 2.96966 19.7412 2.98377 21.0025 3.03999C22.1746 3.09164 22.8075 3.28851 23.2295 3.45261C23.7498 3.64472 24.2234 3.94947 24.6078 4.34799C25.0063 4.73716 25.311 5.206 25.5033 5.72649C25.6674 6.14845 25.8643 6.78596 25.916 7.95349C25.9722 9.21936 25.9863 9.59901 25.9863 12.8012C25.9863 16.0035 25.9722 16.3785 25.916 17.6444Z" fill="#222222"/>
<path d="M16.1453 6.62646C12.7416 6.62646 9.98001 9.38787 9.98001 12.7917C9.98001 16.1956 12.7416 18.957 16.1453 18.957C19.5491 18.957 22.3105 16.1956 22.3105 12.7917C22.3105 9.38787 19.5491 6.62646 16.1453 6.62646ZM16.1453 16.791C13.9371 16.791 12.146 15 12.146 12.7917C12.146 10.5834 13.9371 8.79248 16.1453 8.79248C18.3536 8.79248 20.1445 10.5834 20.1445 12.7917C20.1445 15 18.3536 16.791 16.1453 16.791Z" fill="#222222"/>
<path d="M23.9938 6.38291C23.9938 7.17775 23.3493 7.82222 22.5543 7.82222C21.7595 7.82222 21.115 7.17775 21.115 6.38291C21.115 5.58789 21.7595 4.9436 22.5543 4.9436C23.3493 4.9436 23.9938 5.58789 23.9938 6.38291Z" fill="#222222"/>
</g>
<defs>
<filter id="filter0_d_32_105" x="0.100708" y="0.789551" width="32" height="32" filterUnits="userSpaceOnUse" color-interpolation-filters="sRGB">
<feFlood flood-opacity="0" result="BackgroundImageFix"/>
<feColorMatrix in="SourceAlpha" type="matrix" values="0 0 0 0 0 0 0 0 0 0 0 0 0 0 0 0 0 0 127 0" result="hardAlpha"/>
<feOffset dy="4"/>
<feGaussianBlur stdDeviation="2"/>
<feComposite in2="hardAlpha" operator="out"/>
<feColorMatrix type="matrix" values="0 0 0 0 0 0 0 0 0 0 0 0 0 0 0 0 0 0 0.25 0"/>
<feBlend mode="normal" in2="BackgroundImageFix" result="effect1_dropShadow_32_105"/>
<feBlend mode="normal" in="SourceGraphic" in2="effect1_dropShadow_32_105" result="shape"/>
</filter>
<clipPath id="clip0_32_105">
<rect width="24" height="24" fill="white" transform="translate(4.10071 0.789551)"/>
</clipPath>
</defs>
</svg>
